<svg xmlns="http://www.w3.org/2000/svg" width="36" height="37" viewBox="0 0 36 37" fill="none"><path d="M18 36.0492C27.9411 36.0492 36 28.1232 36 18.3459C36 8.56862 27.9411 0.642578 18 0.642578C8.05887 0.642578 0 8.56862 0 18.3459C0 28.1232 8.05887 36.0492 18 36.0492Z" fill="#F0F0F0"></path><path d="M17.2168 18.3448H35.9994C35.9994 16.7469 35.7828 15.1991 35.3793 13.7266H17.2168V18.3448Z" fill="#CC0000"></path><path d="M17.2168 9.10852H33.3574C32.2556 7.34012 30.8469 5.77704 29.2042 4.49023H17.2168V9.10852Z" fill="#CC0000"></path><path d="M17.9997 36.0478C22.236 36.0478 26.1297 34.6077 29.2045 32.1992H6.79492C9.86976 34.6077 13.7634 36.0478 17.9997 36.0478Z" fill="#CC0000"></path><path d="M2.64098 27.5812H33.3571C34.2417 26.1616 34.9277 24.6097 35.3789 22.9629H0.619141C1.07034 24.6097 1.75637 26.1616 2.64098 27.5812Z" fill="#CC0000"></path><path d="M18 18.3459C18 8.56869 18 7.41603 18 0.642578C8.05893 0.642578 0 8.56869 0 18.3459H18Z" fill="#0052B4"></path><path d="M11.9695 15.7968C9.51125 15.7968 7.51846 13.8368 7.51846 11.4191C7.51846 9.00147 9.51132 7.04145 11.9695 7.04145C12.736 7.04145 13.4572 7.2321 14.0868 7.56764C13.0991 6.61767 11.7482 6.03125 10.2576 6.03125C7.23208 6.03125 4.7793 8.44353 4.7793 11.4192C4.7793 14.3949 7.23208 16.8072 10.2576 16.8072C11.7482 16.8072 13.0991 16.2208 14.0868 15.2708C13.4572 15.6062 12.7361 15.7968 11.9695 15.7968Z" fill="#FFDA44"></path><path d="M13.2247 8.33984L14.0149 9.96509L15.7995 9.55957L15.0004 11.1805L16.4356 12.2999L14.6487 12.696L14.6537 14.4976L13.2247 13.3705L11.7957 14.4976L11.8006 12.696L10.0137 12.2999L11.4489 11.1805L10.6496 9.55957L12.4344 9.96509L13.2247 8.33984Z" fill="#FFDA44"></path></svg>